<svg xmlns="http://www.w3.org/2000/svg" style="display:none">
  <symbol id="icon-home" viewBox="0 0 24 24"><path d="M3 11.5 12 4l9 7.5"/><path d="M5 10.5V21h14V10.5"/><path d="M9 21v-6h6v6"/></symbol>
  <symbol id="icon-requests" viewBox="0 0 24 24"><path d="M4 5h16v14H4z"/><path d="m4 7 8 6 8-6"/></symbol>
  <symbol id="icon-calendar" viewBox="0 0 24 24"><rect x="3" y="5" width="18" height="16" rx="2"/><path d="M16 3v4M8 3v4M3 10h18"/><path d="M8 14h.01M12 14h.01M16 14h.01M8 18h.01M12 18h.01"/></symbol>
  <symbol id="icon-services" viewBox="0 0 24 24"><rect x="3" y="7" width="18" height="14" rx="2"/><path d="M8 7V5a2 2 0 0 1 2-2h4a2 2 0 0 1 2 2v2M3 12h18M10 12v2h4v-2"/></symbol>
  <symbol id="icon-profile" viewBox="0 0 24 24"><circle cx="12" cy="8" r="4"/><path d="M4 21a8 8 0 0 1 16 0"/></symbol>
  <symbol id="icon-file-text" viewBox="0 0 24 24"><path d="M6 2h8l4 4v16H6z"/><path d="M14 2v5h5M9 13h6M9 17h6M9 9h2"/></symbol>
  <symbol id="icon-message" viewBox="0 0 24 24"><path d="M21 15a4 4 0 0 1-4 4H8l-5 3 1.5-5A8 8 0 1 1 21 15Z"/><path d="M8 12h.01M12 12h.01M16 12h.01"/></symbol>
  <symbol id="icon-date" viewBox="0 0 24 24"><rect x="3" y="5" width="18" height="16" rx="2"/><path d="M16 3v4M8 3v4M3 10h18"/></symbol>
  <symbol id="icon-people" viewBox="0 0 24 24"><path d="M16 21v-2a4 4 0 0 0-4-4H6a4 4 0 0 0-4 4v2"/><circle cx="9" cy="7" r="4"/><path d="M22 21v-2a4 4 0 0 0-3-3.87M16 3.13a4 4 0 0 1 0 7.75"/></symbol>
  <symbol id="icon-language" viewBox="0 0 24 24"><circle cx="12" cy="12" r="9"/><path d="M3 12h18M12 3a15 15 0 0 1 0 18M12 3a15 15 0 0 0 0 18"/></symbol>
  <symbol id="icon-share" viewBox="0 0 24 24"><circle cx="18" cy="5" r="3"/><circle cx="6" cy="12" r="3"/><circle cx="18" cy="19" r="3"/><path d="m8.7 10.7 6.6-4.2M8.7 13.3l6.6 4.2"/></symbol>
  <symbol id="icon-chevron-right" viewBox="0 0 24 24"><path d="m9 18 6-6-6-6"/></symbol>
  <symbol id="icon-chevron-left" viewBox="0 0 24 24"><path d="m15 18-6-6 6-6"/></symbol>
  <symbol id="icon-chevron-down" viewBox="0 0 24 24"><path d="m6 9 6 6 6-6"/></symbol>
  <symbol id="icon-back" viewBox="0 0 24 24"><path d="m15 18-6-6 6-6"/><path d="M9 12h12"/></symbol>
  <symbol id="icon-more-horizontal" viewBox="0 0 24 24"><circle cx="5" cy="12" r="1" fill="currentColor" stroke="none"/><circle cx="12" cy="12" r="1" fill="currentColor" stroke="none"/><circle cx="19" cy="12" r="1" fill="currentColor" stroke="none"/></symbol>
  <symbol id="icon-line" viewBox="0 0 24 24"><path d="M21 11c0 4.4-4 8-9 8-.8 0-1.6-.1-2.3-.3L5 21l1.1-3.7C4.2 15.8 3 13.6 3 11c0-4.4 4-8 9-8s9 3.6 9 8Z"/><text x="12" y="13.2" text-anchor="middle" font-size="5" font-family="Arial,sans-serif" font-weight="700" fill="currentColor" stroke="none">LINE</text></symbol>
  <symbol id="icon-email" viewBox="0 0 24 24"><rect x="3" y="5" width="18" height="14" rx="2"/><path d="m3 7 9 6 9-6"/></symbol>
  <symbol id="icon-itinerary" viewBox="0 0 24 24"><rect x="3" y="5" width="18" height="16" rx="2"/><path d="M8 3v4M16 3v4M3 10h18"/><path d="m8 16 2 2 5-5"/></symbol>
  <symbol id="icon-walking" viewBox="0 0 24 24"><circle cx="12" cy="4" r="2"/><path d="m10 8 4 2 2 4M10 8l-2 5-3 3M10 13l3 3-1 5M14 10l4-2"/></symbol>
  <symbol id="icon-copy" viewBox="0 0 24 24"><rect x="8" y="8" width="12" height="12" rx="2"/><path d="M16 8V5a2 2 0 0 0-2-2H5a2 2 0 0 0-2 2v9a2 2 0 0 0 2 2h3"/></symbol>
  <symbol id="icon-check-circle" viewBox="0 0 24 24"><circle cx="12" cy="12" r="9"/><path d="m8 12 2.5 2.5L16 9"/></symbol>
  <symbol id="icon-x-circle" viewBox="0 0 24 24"><circle cx="12" cy="12" r="9"/><path d="m9 9 6 6M15 9l-6 6"/></symbol>
  <symbol id="icon-plus" viewBox="0 0 24 24"><path d="M12 5v14M5 12h14"/></symbol>
  <symbol id="icon-edit" viewBox="0 0 24 24"><path d="M12 20h9"/><path d="M16.5 3.5a2.1 2.1 0 0 1 3 3L8 18l-4 1 1-4Z"/></symbol>
  <symbol id="icon-image-upload" viewBox="0 0 24 24"><rect x="3" y="4" width="18" height="16" rx="2"/><circle cx="8.5" cy="9" r="1.5"/><path d="m3 16 5-5 4 4 2-2 7 7M16 9V3M13 6l3-3 3 3"/></symbol>
  <symbol id="icon-radio-selected" viewBox="0 0 24 24"><circle cx="12" cy="12" r="9"/><circle cx="12" cy="12" r="5" fill="currentColor" stroke="none"/></symbol>
  <symbol id="icon-location" viewBox="0 0 24 24"><path d="M20 10c0 5-8 12-8 12S4 15 4 10a8 8 0 1 1 16 0Z"/><circle cx="12" cy="10" r="2.5"/></symbol>
  <symbol id="icon-map" viewBox="0 0 24 24"><path d="m3 6 6-3 6 3 6-3v15l-6 3-6-3-6 3Z"/><path d="M9 3v15M15 6v15"/></symbol>
  <symbol id="icon-eye" viewBox="0 0 24 24"><path d="M2 12s3.5-6 10-6 10 6 10 6-3.5 6-10 6S2 12 2 12Z"/><circle cx="12" cy="12" r="3"/></symbol>
  <symbol id="icon-link" viewBox="0 0 24 24"><path d="M10 13a5 5 0 0 0 7.1.1l2-2a5 5 0 0 0-7.1-7.1l-1.1 1.1"/><path d="M14 11a5 5 0 0 0-7.1-.1l-2 2A5 5 0 0 0 12 20l1.1-1.1"/></symbol>
  <symbol id="icon-qr-code" viewBox="0 0 24 24"><rect x="3" y="3" width="7" height="7"/><rect x="14" y="3" width="7" height="7"/><rect x="3" y="14" width="7" height="7"/><path d="M14 14h3v3h-3zM18 14h3M21 14v3M14 18v3M17 21h4M18 18h3"/></symbol>
  <symbol id="icon-availability-settings" viewBox="0 0 24 24"><circle cx="12" cy="12" r="8"/><path d="M12 7v5l3 2M4 4l2 2M20 4l-2 2"/><path d="M4 17H2v4h4v-2"/></symbol>
  <symbol id="icon-clock" viewBox="0 0 24 24"><circle cx="12" cy="12" r="9"/><path d="M12 7v5l3 2"/></symbol>
  <symbol id="icon-check" viewBox="0 0 24 24"><path d="m5 12 4 4L19 6"/></symbol>
  <symbol id="icon-close" viewBox="0 0 24 24"><path d="m6 6 12 12M18 6 6 18"/></symbol>
  <symbol id="icon-settings" viewBox="0 0 24 24"><circle cx="12" cy="12" r="3"/><path d="M19.4 15a1.7 1.7 0 0 0 .3 1.9l.1.1-2.8 2.8-.1-.1a1.7 1.7 0 0 0-1.9-.3 1.7 1.7 0 0 0-1 1.6v.2h-4V21a1.7 1.7 0 0 0-1-1.6 1.7 1.7 0 0 0-1.9.3l-.1.1L4.2 17l.1-.1a1.7 1.7 0 0 0 .3-1.9A1.7 1.7 0 0 0 3 14H2.8v-4H3a1.7 1.7 0 0 0 1.6-1 1.7 1.7 0 0 0-.3-1.9L4.2 7 7 4.2l.1.1A1.7 1.7 0 0 0 9 4.6 1.7 1.7 0 0 0 10 3V2.8h4V3a1.7 1.7 0 0 0 1 1.6 1.7 1.7 0 0 0 1.9-.3l.1-.1L19.8 7l-.1.1a1.7 1.7 0 0 0-.3 1.9 1.7 1.7 0 0 0 1.6 1h.2v4H21a1.7 1.7 0 0 0-1.6 1Z"/></symbol>
</svg>
