<svg xmlns="http://www.w3.org/2000/svg" style="display:none">
  <!-- Midao 祕島 icon sprite v2 — 手繪重製：24 網格、stroke 1.8、round cap/join、currentColor。
       每個 symbol 自帶 fill/stroke 屬性（v1 遺失導致渲染成實心色塊）。 -->
  <symbol id="icon-home" viewBox="0 0 24 24" fill="none" stroke="currentColor" stroke-width="1.8" stroke-linecap="round" stroke-linejoin="round">
    <path d="M4.2 10.9 12 4.3l7.8 6.6"/>
    <path d="M6.1 9.6v8.6a1.8 1.8 0 0 0 1.8 1.8h8.2a1.8 1.8 0 0 0 1.8-1.8V9.6"/>
    <path d="M9.9 20v-4.6a2.1 2.1 0 0 1 4.2 0V20"/>
  </symbol>
  <symbol id="icon-requests" viewBox="0 0 24 24" fill="none" stroke="currentColor" stroke-width="1.8" stroke-linecap="round" stroke-linejoin="round">
    <rect x="4.8" y="3.6" width="14.4" height="16.8" rx="2.4"/>
    <path d="M8.4 8.4h7.2M8.4 12h7.2M8.4 15.6h4.2"/>
  </symbol>
  <symbol id="icon-calendar" viewBox="0 0 24 24" fill="none" stroke="currentColor" stroke-width="1.8" stroke-linecap="round" stroke-linejoin="round">
    <rect x="3.6" y="4.9" width="16.8" height="15.3" rx="2.4"/>
    <path d="M3.6 9.6h16.8M8.2 2.9v3.8M15.8 2.9v3.8"/>
  </symbol>
  <symbol id="icon-services" viewBox="0 0 24 24" fill="none" stroke="currentColor" stroke-width="1.8" stroke-linecap="round" stroke-linejoin="round">
    <rect x="3.6" y="7.4" width="16.8" height="12.2" rx="2.4"/>
    <path d="M9.2 7.4V6a2 2 0 0 1 2-2h1.6a2 2 0 0 1 2 2v1.4"/>
    <path d="M3.6 12.2h16.8"/>
    <path d="M10.6 12.2v1.9h2.8v-1.9"/>
  </symbol>
  <symbol id="icon-profile" viewBox="0 0 24 24" fill="none" stroke="currentColor" stroke-width="1.8" stroke-linecap="round" stroke-linejoin="round">
    <circle cx="12" cy="8.1" r="3.6"/>
    <path d="M4.9 20c.9-3.5 3.7-5.5 7.1-5.5s6.2 2 7.1 5.5"/>
  </symbol>
  <symbol id="icon-file-text" viewBox="0 0 24 24" fill="none" stroke="currentColor" stroke-width="1.8" stroke-linecap="round" stroke-linejoin="round">
    <path d="M13.6 3.4H7.4a2 2 0 0 0-2 2v13.2a2 2 0 0 0 2 2h9.2a2 2 0 0 0 2-2V8.4z"/>
    <path d="M13.6 3.4v5h5"/>
    <path d="M9 13.2h6M9 16.4h3.8"/>
  </symbol>
  <symbol id="icon-message" viewBox="0 0 24 24" fill="none" stroke="currentColor" stroke-width="1.8" stroke-linecap="round" stroke-linejoin="round">
    <path d="M20.1 11.3a8.1 7.3 0 1 1-4-6.3 7.6 7.6 0 0 1 4 6.3c0 2-1 3.9-2.6 5.2l.6 2.9-3.3-1.5"/>
    <circle cx="8.6" cy="11.4" r=".95" fill="currentColor" stroke="none"/>
    <circle cx="12.2" cy="11.4" r=".95" fill="currentColor" stroke="none"/>
    <circle cx="15.8" cy="11.4" r=".95" fill="currentColor" stroke="none"/>
  </symbol>
  <symbol id="icon-date" viewBox="0 0 24 24" fill="none" stroke="currentColor" stroke-width="1.8" stroke-linecap="round" stroke-linejoin="round">
    <rect x="3.6" y="4.9" width="16.8" height="15.3" rx="2.4"/>
    <path d="M3.6 9.6h16.8M8.2 2.9v3.8M15.8 2.9v3.8"/>
    <circle cx="12" cy="14.6" r="1.7" fill="currentColor" stroke="none"/>
  </symbol>
  <symbol id="icon-people" viewBox="0 0 24 24" fill="none" stroke="currentColor" stroke-width="1.8" stroke-linecap="round" stroke-linejoin="round">
    <circle cx="9.4" cy="8.6" r="3.1"/>
    <path d="M3.4 19.4c.8-3 3-4.7 6-4.7s5.2 1.7 6 4.7"/>
    <path d="M15.3 5.9a3.1 3.1 0 0 1 0 5.4M17.4 14.9c1.7.8 2.8 2.3 3.2 4.5"/>
  </symbol>
  <symbol id="icon-language" viewBox="0 0 24 24" fill="none" stroke="currentColor" stroke-width="1.8" stroke-linecap="round" stroke-linejoin="round">
    <circle cx="12" cy="12" r="8.1"/>
    <path d="M4 12h16M12 3.9c2.4 2.3 3.7 5 3.7 8.1s-1.3 5.8-3.7 8.1c-2.4-2.3-3.7-5-3.7-8.1S9.6 6.2 12 3.9z"/>
  </symbol>
  <symbol id="icon-share" viewBox="0 0 24 24" fill="none" stroke="currentColor" stroke-width="1.8" stroke-linecap="round" stroke-linejoin="round">
    <path d="M12 13.8V4.2"/>
    <path d="m8.6 7.4 3.4-3.4 3.4 3.4"/>
    <path d="M7 10.6H6.4a2 2 0 0 0-2 2v5.6a2 2 0 0 0 2 2h11.2a2 2 0 0 0 2-2v-5.6a2 2 0 0 0-2-2H17"/>
  </symbol>
  <symbol id="icon-chevron-right" viewBox="0 0 24 24" fill="none" stroke="currentColor" stroke-width="1.8" stroke-linecap="round" stroke-linejoin="round">
    <path d="m9.4 6.2 5.8 5.8-5.8 5.8"/>
  </symbol>
  <symbol id="icon-chevron-left" viewBox="0 0 24 24" fill="none" stroke="currentColor" stroke-width="1.8" stroke-linecap="round" stroke-linejoin="round">
    <path d="M14.6 6.2 8.8 12l5.8 5.8"/>
  </symbol>
  <symbol id="icon-chevron-down" viewBox="0 0 24 24" fill="none" stroke="currentColor" stroke-width="1.8" stroke-linecap="round" stroke-linejoin="round">
    <path d="m6.2 9.4 5.8 5.8 5.8-5.8"/>
  </symbol>
  <symbol id="icon-back" viewBox="0 0 24 24" fill="none" stroke="currentColor" stroke-width="1.8" stroke-linecap="round" stroke-linejoin="round">
    <path d="M19.2 12H5.4"/>
    <path d="M11.2 5.8 5 12l6.2 6.2"/>
  </symbol>
  <symbol id="icon-email" viewBox="0 0 24 24" fill="none" stroke="currentColor" stroke-width="1.8" stroke-linecap="round" stroke-linejoin="round">
    <rect x="3.4" y="5.4" width="17.2" height="13.2" rx="2.4"/>
    <path d="m4.6 7.6 7.4 5.4 7.4-5.4"/>
  </symbol>
  <symbol id="icon-line" viewBox="0 0 24 24">
    <path fill="currentColor" d="M12 3.6c-5 0-9 3.3-9 7.3 0 3.6 3.2 6.6 7.5 7.2.3 0 .7.1.8.3.1.2.1.5.1.7l-.2 1.3c0 .4-.3 1.5 1.3.8 1.6-.7 8.5-5 8.5-10.3 0-4-4-7.3-9-7.3zM8.3 13.2H6.6a.5.5 0 0 1-.5-.5V9.4a.5.5 0 0 1 1 0v2.8h1.2a.5.5 0 1 1 0 1zm1.9-.5a.5.5 0 0 1-1 0V9.4a.5.5 0 0 1 1 0zm4.4 0a.5.5 0 0 1-.9.3l-1.6-2.2v1.9a.5.5 0 0 1-1 0V9.4a.5.5 0 0 1 .9-.3l1.6 2.2V9.4a.5.5 0 0 1 1 0zm2.9-2.2a.5.5 0 1 1 0 1h-1.2v.7h1.2a.5.5 0 1 1 0 1H15.8a.5.5 0 0 1-.5-.5V9.4a.5.5 0 0 1 .5-.5h1.7a.5.5 0 1 1 0 1h-1.2v.6z"/>
  </symbol>
  <symbol id="icon-walking" viewBox="0 0 24 24" fill="none" stroke="currentColor" stroke-width="1.8" stroke-linecap="round" stroke-linejoin="round">
    <circle cx="13.2" cy="4.6" r="1.9" fill="currentColor" stroke="none"/>
    <path d="M13.4 8.3c-1.7-.4-3.3.2-4.3 1.6l-1.5 2.2"/>
    <path d="m13.4 8.3-.9 4.6 2.7 2.6.9 4.4"/>
    <path d="m12.1 13.6-2.4 2.1-1.2 4.3"/>
    <path d="m13.4 8.3 2.1 2.5 2.8.7"/>
  </symbol>
  <symbol id="icon-copy" viewBox="0 0 24 24" fill="none" stroke="currentColor" stroke-width="1.8" stroke-linecap="round" stroke-linejoin="round">
    <rect x="8.8" y="8.8" width="11.6" height="11.6" rx="2.2"/>
    <path d="M5.6 15.2H5a2 2 0 0 1-2-2V5a2 2 0 0 1 2-2h8.2a2 2 0 0 1 2 2v.6"/>
  </symbol>
  <symbol id="icon-check-circle" viewBox="0 0 24 24" fill="none" stroke="currentColor" stroke-width="1.8" stroke-linecap="round" stroke-linejoin="round">
    <circle cx="12" cy="12" r="8.1"/>
    <path d="m8.4 12.3 2.4 2.4 4.8-5.1"/>
  </symbol>
  <symbol id="icon-x-circle" viewBox="0 0 24 24" fill="none" stroke="currentColor" stroke-width="1.8" stroke-linecap="round" stroke-linejoin="round">
    <circle cx="12" cy="12" r="8.1"/>
    <path d="m9.2 9.2 5.6 5.6M14.8 9.2l-5.6 5.6"/>
  </symbol>
  <symbol id="icon-itinerary" viewBox="0 0 24 24" fill="none" stroke="currentColor" stroke-width="1.8" stroke-linecap="round" stroke-linejoin="round">
    <circle cx="6" cy="18.2" r="2.2"/>
    <circle cx="18" cy="5.8" r="2.2"/>
    <path d="M8.2 18.2h6.6a3.1 3.1 0 0 0 0-6.2H9.2a3.1 3.1 0 0 1 0-6.2h6.6"/>
  </symbol>
  <symbol id="icon-availability-settings" viewBox="0 0 24 24" fill="none" stroke="currentColor" stroke-width="1.8" stroke-linecap="round" stroke-linejoin="round">
    <path d="M3.8 7.6h8.4M18.6 7.6h1.6M3.8 16.4h1.6M10 16.4h10.2"/>
    <circle cx="15.4" cy="7.6" r="2.3"/>
    <circle cx="7.2" cy="16.4" r="2.3"/>
  </symbol>
  <symbol id="icon-clock" viewBox="0 0 24 24" fill="none" stroke="currentColor" stroke-width="1.8" stroke-linecap="round" stroke-linejoin="round">
    <circle cx="12" cy="12" r="8.1"/>
    <path d="M12 7.6V12l3 1.9"/>
  </symbol>
  <symbol id="icon-check" viewBox="0 0 24 24" fill="none" stroke="currentColor" stroke-width="2" stroke-linecap="round" stroke-linejoin="round">
    <path d="m5.2 12.6 4.4 4.4 9.2-9.8"/>
  </symbol>
  <symbol id="icon-close" viewBox="0 0 24 24" fill="none" stroke="currentColor" stroke-width="2" stroke-linecap="round" stroke-linejoin="round">
    <path d="m6.6 6.6 10.8 10.8M17.4 6.6 6.6 17.4"/>
  </symbol>
  <symbol id="icon-plus" viewBox="0 0 24 24" fill="none" stroke="currentColor" stroke-width="2" stroke-linecap="round" stroke-linejoin="round">
    <path d="M12 5.2v13.6M5.2 12h13.6"/>
  </symbol>
  <symbol id="icon-edit" viewBox="0 0 24 24" fill="none" stroke="currentColor" stroke-width="1.8" stroke-linecap="round" stroke-linejoin="round">
    <path d="M4.4 19.6h4.1L19.4 8.7a2 2 0 0 0 0-2.8l-1.3-1.3a2 2 0 0 0-2.8 0L4.4 15.5z"/>
    <path d="m13.4 6.5 4.1 4.1"/>
  </symbol>
  <symbol id="icon-more-horizontal" viewBox="0 0 24 24" fill="none">
    <circle cx="5.6" cy="12" r="1.5" fill="currentColor"/>
    <circle cx="12" cy="12" r="1.5" fill="currentColor"/>
    <circle cx="18.4" cy="12" r="1.5" fill="currentColor"/>
  </symbol>
  <symbol id="icon-radio-selected" viewBox="0 0 24 24" fill="none" stroke="currentColor" stroke-width="1.8">
    <circle cx="12" cy="12" r="8.1"/>
    <circle cx="12" cy="12" r="4" fill="currentColor" stroke="none"/>
  </symbol>
  <symbol id="icon-settings" viewBox="0 0 24 24" fill="none" stroke="currentColor" stroke-width="1.8" stroke-linecap="round" stroke-linejoin="round">
    <circle cx="12" cy="12" r="3.1"/>
    <path d="M19.2 12c0-.5-.1-1-.2-1.5l2-1.5-1.8-3.1-2.3 1a7.3 7.3 0 0 0-2.6-1.5L14 3h-4l-.3 2.4c-1 .3-1.8.8-2.6 1.5l-2.3-1L3 9l2 1.5a7.6 7.6 0 0 0 0 3L3 15l1.8 3.1 2.3-1c.8.7 1.6 1.2 2.6 1.5L10 21h4l.3-2.4c1-.3 1.8-.8 2.6-1.5l2.3 1L21 15l-2-1.5c.1-.5.2-1 .2-1.5z"/>
  </symbol>
  <symbol id="icon-location" viewBox="0 0 24 24" fill="none" stroke="currentColor" stroke-width="1.8" stroke-linecap="round" stroke-linejoin="round">
    <path d="M12 20.8s-6.6-5.4-6.6-10a6.6 6.6 0 0 1 13.2 0c0 4.6-6.6 10-6.6 10z"/>
    <circle cx="12" cy="10.6" r="2.3"/>
  </symbol>
  <symbol id="icon-map" viewBox="0 0 24 24" fill="none" stroke="currentColor" stroke-width="1.8" stroke-linecap="round" stroke-linejoin="round">
    <path d="m9 4.6-4.6 1.7v13.1L9 17.7l6 1.7 4.6-1.7V4.6L15 6.3z"/>
    <path d="M9 4.6v13.1M15 6.3v13.1"/>
  </symbol>
  <symbol id="icon-link" viewBox="0 0 24 24" fill="none" stroke="currentColor" stroke-width="1.8" stroke-linecap="round" stroke-linejoin="round">
    <path d="M10.2 13.8a4.4 4.4 0 0 0 6.2.4l2.4-2.4a4.4 4.4 0 0 0-6.2-6.2l-1.4 1.3"/>
    <path d="M13.8 10.2a4.4 4.4 0 0 0-6.2-.4l-2.4 2.4a4.4 4.4 0 0 0 6.2 6.2l1.3-1.3"/>
  </symbol>
  <symbol id="icon-eye" viewBox="0 0 24 24" fill="none" stroke="currentColor" stroke-width="1.8" stroke-linecap="round" stroke-linejoin="round">
    <path d="M2.9 12S6.6 5.9 12 5.9 21.1 12 21.1 12 17.4 18.1 12 18.1 2.9 12 2.9 12z"/>
    <circle cx="12" cy="12" r="2.7"/>
  </symbol>
  <symbol id="icon-qr-code" viewBox="0 0 24 24" fill="none" stroke="currentColor" stroke-width="1.8" stroke-linejoin="round">
    <rect x="4" y="4" width="6.4" height="6.4" rx="1.2"/>
    <rect x="13.6" y="4" width="6.4" height="6.4" rx="1.2"/>
    <rect x="4" y="13.6" width="6.4" height="6.4" rx="1.2"/>
    <path d="M13.6 13.6h2.7v2.7h-2.7zM17.3 17.3H20V20h-2.7z" fill="currentColor" stroke="none"/>
  </symbol>
  <symbol id="icon-image-upload" viewBox="0 0 24 24" fill="none" stroke="currentColor" stroke-width="1.8" stroke-linecap="round" stroke-linejoin="round">
    <rect x="3.6" y="5" width="16.8" height="14" rx="2.4"/>
    <circle cx="9" cy="9.8" r="1.6"/>
    <path d="m5.8 16.8 4.2-4 3 2.8 2.4-2.2 2.8 2.6"/>
  </symbol>
</svg>
